<mxfile host="65bd71144e">
    <diagram id="7D2K3nmfi1jVlEs7kgWo" name="Page-1">
        <mxGraphModel dx="889" dy="704" grid="1" gridSize="10" guides="1" tooltips="1" connect="1" arrows="1" fold="1" page="1" pageScale="1" pageWidth="850" pageHeight="1100" math="0" shadow="0">
            <root>
                <mxCell id="0"/>
                <mxCell id="1" parent="0"/>
                <mxCell id="12" value="" style="group" vertex="1" connectable="0" parent="1">
                    <mxGeometry x="240" y="130" width="280" height="205" as="geometry"/>
                </mxCell>
                <mxCell id="3" value="236" style="ellipse;whiteSpace=wrap;html=1;" vertex="1" parent="12">
                    <mxGeometry x="80" width="55" height="55" as="geometry"/>
                </mxCell>
                <mxCell id="4" value="104" style="ellipse;whiteSpace=wrap;html=1;" vertex="1" parent="12">
                    <mxGeometry y="70" width="55" height="55" as="geometry"/>
                </mxCell>
                <mxCell id="5" value="701" style="ellipse;whiteSpace=wrap;html=1;" vertex="1" parent="12">
                    <mxGeometry x="170" y="70" width="55" height="55" as="geometry"/>
                </mxCell>
                <mxCell id="6" value="227" style="ellipse;whiteSpace=wrap;html=1;" vertex="1" parent="12">
                    <mxGeometry x="55" y="150" width="55" height="55" as="geometry"/>
                </mxCell>
                <mxCell id="7" value="911" style="ellipse;whiteSpace=wrap;html=1;" vertex="1" parent="12">
                    <mxGeometry x="225" y="150" width="55" height="55" as="geometry"/>
                </mxCell>
                <mxCell id="8" value="" style="endArrow=none;html=1;rounded=0;exitX=1;exitY=0;exitDx=0;exitDy=0;" edge="1" parent="12" source="4">
                    <mxGeometry width="50" height="50" relative="1" as="geometry">
                        <mxPoint x="60" y="70" as="sourcePoint"/>
                        <mxPoint x="80" y="40" as="targetPoint"/>
                    </mxGeometry>
                </mxCell>
                <mxCell id="9" value="" style="endArrow=none;html=1;rounded=0;entryX=1;entryY=0.5;entryDx=0;entryDy=0;exitX=0.5;exitY=0;exitDx=0;exitDy=0;" edge="1" parent="12" source="5" target="3">
                    <mxGeometry width="50" height="50" relative="1" as="geometry">
                        <mxPoint x="120" y="180" as="sourcePoint"/>
                        <mxPoint x="170" y="130" as="targetPoint"/>
                    </mxGeometry>
                </mxCell>
                <mxCell id="10" value="" style="endArrow=none;html=1;rounded=0;entryX=1;entryY=1;entryDx=0;entryDy=0;exitX=0.5;exitY=0;exitDx=0;exitDy=0;" edge="1" parent="12" source="6" target="4">
                    <mxGeometry width="50" height="50" relative="1" as="geometry">
                        <mxPoint x="120" y="180" as="sourcePoint"/>
                        <mxPoint x="170" y="130" as="targetPoint"/>
                    </mxGeometry>
                </mxCell>
                <mxCell id="11" value="" style="endArrow=none;html=1;rounded=0;entryX=1;entryY=1;entryDx=0;entryDy=0;exitX=0.5;exitY=0;exitDx=0;exitDy=0;" edge="1" parent="12" source="7" target="5">
                    <mxGeometry width="50" height="50" relative="1" as="geometry">
                        <mxPoint x="120" y="180" as="sourcePoint"/>
                        <mxPoint x="170" y="130" as="targetPoint"/>
                    </mxGeometry>
                </mxCell>
            </root>
        </mxGraphModel>
    </diagram>
</mxfile>